<svg xmlns="http://www.w3.org/2000/svg" viewBox="0 0 32 32">
  <rect width="32" height="32" rx="8" fill="#07090D"/>
  <g transform="translate(16, 16)">
    <circle cx="0" cy="0" r="12" fill="#5B3D7A"/>
    <rect x="-1.8" y="-12" width="3.6" height="4.5" rx="1" fill="#E84D8A" transform="rotate(0 0 0)"/>
    <rect x="-1.8" y="-12" width="3.6" height="4.5" rx="1" fill="#E84D8A" transform="rotate(45 0 0)"/>
    <rect x="-1.8" y="-12" width="3.6" height="4.5" rx="1" fill="#E84D8A" transform="rotate(90 0 0)"/>
    <rect x="-1.8" y="-12" width="3.6" height="4.5" rx="1" fill="#E84D8A" transform="rotate(135 0 0)"/>
    <rect x="-1.8" y="-12" width="3.6" height="4.5" rx="1" fill="#E84D8A" transform="rotate(180 0 0)"/>
    <rect x="-1.8" y="-12" width="3.6" height="4.5" rx="1" fill="#E84D8A" transform="rotate(225 0 0)"/>
    <rect x="-1.8" y="-12" width="3.6" height="4.5" rx="1" fill="#E84D8A" transform="rotate(270 0 0)"/>
    <rect x="-1.8" y="-12" width="3.6" height="4.5" rx="1" fill="#E84D8A" transform="rotate(315 0 0)"/>
    <circle cx="0" cy="0" r="8" fill="#6B4D8A"/>
    <circle cx="0" cy="-6.5" r="1.2" fill="#C8D94A" transform="rotate(0 0 0)"/>
    <circle cx="0" cy="-6.5" r="1.2" fill="#C8D94A" transform="rotate(45 0 0)"/>
    <circle cx="0" cy="-6.5" r="1.2" fill="#C8D94A" transform="rotate(90 0 0)"/>
    <circle cx="0" cy="-6.5" r="1.2" fill="#C8D94A" transform="rotate(135 0 0)"/>
    <circle cx="0" cy="-6.5" r="1.2" fill="#C8D94A" transform="rotate(180 0 0)"/>
    <circle cx="0" cy="-6.5" r="1.2" fill="#C8D94A" transform="rotate(225 0 0)"/>
    <circle cx="0" cy="-6.5" r="1.2" fill="#C8D94A" transform="rotate(270 0 0)"/>
    <circle cx="0" cy="-6.5" r="1.2" fill="#C8D94A" transform="rotate(315 0 0)"/>
    <circle cx="0" cy="0" r="4.5" fill="#D4E157"/>
  </g>
</svg>
